<?xml version="1.0" ?><!DOCTYPE svg  PUBLIC '-//W3C//DTD SVG 1.1//EN'  'http://www.w3.org/Graphics/SVG/1.1/DTD/svg11.dtd'><svg height="2048px" style="shape-rendering:geometricPrecision; text-rendering:geometricPrecision; image-rendering:optimizeQuality; fill-rule:evenodd; clip-rule:evenodd" viewBox="0 0 2048 2048" width="2048px" xml:space="preserve" xmlns="http://www.w3.org/2000/svg" xmlns:xlink="http://www.w3.org/1999/xlink"><defs><style type="text/css">
   <![CDATA[
    .fil3 {fill:none}
    .fil0 {fill:none;fill-rule:nonzero}
    .fil2 {fill:#424242}
    .fil1 {fill:#424242;fill-rule:nonzero}
   ]]>
  </style></defs><g id="Layer_x0020_1"><path class="fil0" d="M361.464 1151.24c-12.2799,-7.23308 -23.5595,-15.9862 -33.5752,-26.002 -30.326,-30.3248 -49.0831,-72.2174 -49.0831,-118.487 0,-46.2697 18.7571,-88.1623 49.0831,-118.487 30.3248,-30.326 72.2174,-49.0831 118.487,-49.0831 42.6177,0 81.5221,15.9142 111.096,42.124"/><path class="fil0" d="M1686.54 1151.24c12.2799,-7.23308 23.5595,-15.9862 33.5752,-26.002 30.326,-30.3248 49.0831,-72.2174 49.0831,-118.487 0,-46.2697 -18.7571,-88.1623 -49.0831,-118.487 -30.3248,-30.326 -72.2174,-49.0831 -118.487,-49.0831 -42.6177,0 -81.5221,15.9142 -111.096,42.124"/><path class="fil1" d="M1637.37 434.26c13.3559,13.3665 24.1229,29.3091 31.4646,46.9926 7.10316,17.1095 11.0268,35.7957 11.0268,55.3111 0,19.513 -3.92481,38.2016 -11.0291,55.3122 -7.34174,17.6835 -18.1099,33.6284 -31.467,46.9949 -13.4303,13.4398 -29.4177,24.2669 -47.1225,31.6406 -17.1165,7.12914 -35.8099,11.0681 -55.3217,11.0681 -19.5284,0 -38.23,-3.92481 -55.35,-11.0315 -17.6929,-7.34292 -33.6449,-18.1134 -47.0185,-31.4764 -13.4457,-13.4362 -24.274,-29.4307 -31.65,-47.1449 -7.1315,-17.1295 -11.0705,-35.8359 -11.0705,-55.363 0,-19.5272 3.94016,-38.23 11.0705,-55.3512 7.37717,-17.7142 18.2091,-33.7075 31.6536,-47.139 13.376,-13.3654 29.3292,-24.137 47.0221,-31.4823 17.1225,-7.10906 35.8217,-11.035 55.343,-11.035 19.513,0 38.2087,3.93898 55.3276,11.0669 17.7047,7.37245 33.6922,18.1973 47.1213,31.637z"/><path class="fil2" d="M1111.49 444.696l-0.0649607 -0.022441 3.92953 -11.3374c0.218504,-0.627166 0.455906,-1.24134 0.712205,-1.84134l3.26457 -9.4193 2.49803 0.861024c7.05827,-7.08662 17.7272,-9.99686 27.9933,-7.24607l263.501 70.6052c14.85,3.97914 23.7685,19.3925 19.8,34.2485 -3.96969,14.8606 -19.3996,23.7874 -34.2591,19.8059l-239.195 -64.0926 -112.782 338.269c-5.04567,14.5559 -20.9209,22.3087 -35.4933,17.2914 -14.5843,-5.02205 -22.3606,-20.9457 -17.3067,-35.5252l117.403 -351.597z"/><path class="fil2" d="M396.787 1016.07c32.2583,-50.6788 77.6918,-96.5044 133.456,-135.649 -9.35079,-6.21615 -19.4374,-11.4236 -30.1028,-15.4677 -16.6465,-6.31063 -34.7681,-9.76772 -53.765,-9.76772 -20.6303,0 -40.2225,4.0689 -58.017,11.4402 -18.4394,7.63819 -35.1166,18.913 -49.1575,32.9551 -14.0421,14.041 -25.3169,30.7181 -32.9551,49.1575 -7.37127,17.7945 -11.4402,37.3866 -11.4402,58.017 0,20.6303 4.0689,40.2225 11.4402,58.017 7.63819,18.4394 18.913,35.1166 32.9551,49.1575 3.69567,3.69567 7.45276,7.11378 11.2524,10.2378 8.91024,-37.8 24.6378,-74.015 46.3335,-108.098z"/><path class="fil2" d="M1741.75 948.735c-7.63819,-18.4394 -18.913,-35.1166 -32.9551,-49.1575 -14.041,-14.0421 -30.7181,-25.3169 -49.1575,-32.9551 -17.7945,-7.37127 -37.3866,-11.4402 -58.017,-11.4402 -18.9969,0 -37.1185,3.45709 -53.765,9.76772 -8.33623,3.16063 -16.3193,7.03347 -23.8736,11.5417 58.3548,39.9933 105.774,87.1914 139.117,139.575 20.0232,31.4563 34.963,64.728 44.152,99.3851 0.514961,-0.50315 1.02992,-1.01102 1.5437,-1.5248 14.0421,-14.041 25.3169,-30.7181 32.9551,-49.1575 7.37127,-17.7945 11.4402,-37.3866 11.4402,-58.017 0,-20.6303 -4.0689,-40.2225 -11.4402,-58.017z"/><path class="fil2" d="M1491.12 893.003c-60.1311,-38.6363 -131.907,-69.7973 -211.622,-91.1044 -72.8008,-19.4575 -152.208,-30.6626 -235.41,-31.8059 -4.2437,1.00748 -8.76497,1.0311 -13.2248,-0.0968505 -0.305906,0 -0.611811,0 -0.917717,0 -88.3501,0 -172.64,11.3457 -249.552,31.9028 -79.715,21.3071 -151.491,52.4682 -211.622,91.1044 -61.7599,39.6827 -111.399,87.2292 -145.109,140.188 -32.0362,50.328 -49.7174,105.718 -49.7174,164.029 0,58.3111 17.6811,113.701 49.7174,164.029 33.7099,52.9583 83.3493,100.505 145.109,140.188 60.1311,38.6363 131.907,69.7973 211.622,91.1044 76.9123,20.5571 161.202,31.9028 249.552,31.9028 88.3489,0 172.638,-11.3457 249.553,-31.9028 79.715,-21.3071 151.491,-52.4682 211.622,-91.1044 61.7599,-39.6827 111.399,-87.2292 145.109,-140.188 32.0362,-50.328 49.7174,-105.718 49.7174,-164.029 0,-19.2095 -1.91929,-38.1012 -5.63741,-56.5996l-1.83425 -3.12874c0.351969,-0.207874 0.702756,-0.415748 1.05354,-0.627166 -7.79646,-36.2965 -22.5319,-71.0481 -43.2992,-103.674 -33.7099,-52.9583 -83.3493,-100.505 -145.109,-140.188zm-604.685 146.629c20.4449,20.4614 33.1158,48.691 33.1158,79.806 0,31.1091 -12.6721,59.3422 -33.1205,79.806 -20.4886,20.504 -48.7323,33.2067 -79.819,33.2067 -31.1445,0 -59.3941,-12.6744 -79.8686,-33.1311 -20.5146,-20.4992 -33.2197,-48.763 -33.2197,-79.8816 0,-31.1173 12.711,-59.3729 33.2233,-79.8662 20.4815,-20.4673 48.7418,-33.1429 79.865,-33.1429 31.089,0 59.3351,12.7004 79.8237,33.2032zm-84.2575 327.19c68.9965,40.7611 143.593,63.5658 224.052,62.5973 81.9154,-0.986221 160.619,-26.3717 233.051,-63.3875 13.7327,-7.01812 30.567,-1.57087 37.5827,12.163 7.01457,13.7327 1.56851,30.5634 -12.163,37.5803 -80.2583,41.0162 -167.093,68.4225 -257.806,69.515 -90.7394,1.09252 -175.231,-24.261 -253.171,-70.3052 -13.2768,-7.84371 -17.6977,-25.0347 -9.85276,-38.3103 7.84371,-13.2756 25.0323,-17.6953 38.3079,-9.85276zm371.706 -327.192c20.4874,-20.5028 48.73,-33.202 79.8201,-33.202 31.1209,0 59.3563,12.6921 79.8343,33.1843 20.4484,20.4614 33.1051,48.7016 33.1051,79.8249 0,31.1185 -12.6591,59.3599 -33.1099,79.826 -20.4768,20.4921 -48.7111,33.1866 -79.8296,33.1866 -31.1185,0 -59.3493,-12.6957 -79.8249,-33.1878 -20.4496,-20.4662 -33.1087,-48.7087 -33.1087,-79.8249 0,-31.1162 12.6685,-59.3457 33.1134,-79.8071z"/></g><rect class="fil3" height="2048" width="2048"/></svg>